<?xml version="1.0" encoding="UTF-8" standalone="no"?>
<svg
   width="128"
   height="128"
   preserveAspectRatio="none"
   viewBox="1.9188182 1.0114456 128 128"
   version="1.1"
   id="svg1"
   sodipodi:docname="logo.svg"
   inkscape:version="1.3.1 (91b66b0783, 2023-11-16)"
   xmlns:inkscape="http://www.inkscape.org/namespaces/inkscape"
   xmlns:sodipodi="http://sodipodi.sourceforge.net/DTD/sodipodi-0.dtd"
   xmlns="http://www.w3.org/2000/svg"
   xmlns:svg="http://www.w3.org/2000/svg">
  <defs
     id="defs1">
    <clipPath
       clipPathUnits="userSpaceOnUse"
       id="clipPath111">
      <path
         id="path112"
         style="fill:#ff0000;fill-opacity:1;fill-rule:nonzero;stroke:none"
         d="M 1.9188182,1.0114456 V 467.91574 H 572.55358 V 1.0114456 Z M 220.96569,77.700899 c 2.28594,0.14237 1.90225,5.248156 1.28516,10.759765 2.32892,-0.291122 4.66038,-0.562978 6.99414,-0.816406 11.41432,-1.153057 22.88195,-1.6093 34.34375,-1.96289 9.19405,-0.259998 18.39274,-0.348049 27.58984,-0.417969 6.31965,-0.04262 12.63922,-0.06144 18.95899,-0.07227 5.48463,-0.0081 10.97017,-0.0085 16.45508,-0.0098 5.59905,-0.0012 11.19977,-0.0018 16.79882,-0.002 5.94651,-1.73e-4 11.89139,2.5e-5 17.8379,0 3.69034,-1.2e-5 1.90225,8e-6 5.37109,0 22.51892,-5.8e-5 22.51893,22.747991 0,22.748041 -3.47149,1e-5 -1.67585,-1e-5 -5.36914,0 -0.88472,0 -1.76955,1e-5 -2.6543,0 0.23657,1.83175 -0.14889,3.69245 -1.0918,5.40625 2.55989,0.83259 5.30589,2.35912 8.11524,4.7793 1.47793,1.27319 2.95604,2.54984 4.30273,3.96484 3.99823,3.92947 7.85117,8.01302 11.24805,12.48242 3.84013,4.94064 7.57598,9.96401 11.23633,15.03907 4.24455,5.9624 8.75875,11.74298 12.60156,17.98242 1.7669,3.0076 3.58339,6.10874 4.72852,9.39258 0.65101,-0.0229 1.30217,-0.0403 1.95312,-0.0664 0.70317,-0.0282 1.38398,-0.0322 2.04492,-0.0156 14.09156,0.35346 18.49775,10.52983 12.81641,17.14648 0.33847,0.46779 0.67891,0.93391 1.02734,1.39844 3.60365,4.60012 7.67433,8.81894 12.17383,12.54492 7.07346,5.85721 8.75211,12.2199 7.1582,16.75391 0.64956,0.0328 1.30068,0.0685 1.94922,0.10351 14.47908,0.78047 19.11125,10.47241 14.58203,16.95508 0.56603,1.78992 0.61226,3.66034 0.006,5.44531 0.007,-5.6e-4 0.0143,-4.5e-4 0.0215,-0.002 1.74592,-0.13856 3.49041,-0.27746 5.23633,-0.41602 0.70152,-0.0557 1.38383,-0.0864 2.04492,-0.0957 7.14831,-0.10043 11.86658,2.4518 14.13476,5.86328 3.66898,0.44862 6.55606,1.58714 8.70704,3.11133 16.78305,4.37157 13.79257,23.20949 -6.74219,21.86914 -2.27228,-0.14828 -4.54217,-0.22688 -6.82031,-0.17188 -3.26079,-0.002 -6.52056,-0.003 -9.78125,-0.01 -3.48444,-0.008 -6.96887,-0.017 -10.45313,-0.0566 -3.05629,-0.0462 -6.11227,-0.1102 -9.16602,-0.24805 -2.31035,-0.10433 -4.62196,-0.27625 -6.93554,-0.25195 -4.47944,0.047 -8.0528,-0.82332 -10.75,-2.23633 -0.72728,-0.006 -1.4543,-0.0396 -2.18164,-0.0391 -5.63817,0.004 -9.86477,-1.41776 -12.67969,-3.55274 -0.46047,-0.017 -0.86953,-0.0189 -1.35352,-0.0391 -3.25036,-0.13559 -6.63043,-0.19994 -9.83203,-0.86523 -0.84626,-0.17586 -1.67073,-0.44517 -2.50586,-0.66797 -14.9095,-3.97769 4.11902,-8.44777 10.89063,-13.64844 -6.92269,-0.0482 -11.69349,-2.25315 -14.30078,-5.28125 -0.82156,2.94115 -1.21401,5.18481 -3.40235,7.69922 -3.5905,4.1255 -7.5691,5.52352 -12.75586,5.75586 -4.183,-0.0605 -8.35692,-0.52816 -12.41211,-1.59766 -3.16214,-0.98267 -6.25072,-2.0352 -8.82617,-4.24609 -2.90894,-2.49731 -4.75744,-5.6783 -5.62304,-9.37891 -0.83759,-4.09798 -1.57733,-8.22444 -2.08204,-12.37695 -0.21379,-2.28792 -0.39874,-3.91162 -0.46484,-6.24609 -0.0862,-3.04768 0.11228,-6.08901 0.49024,-9.10938 -13.50121,-0.0279 -27.0026,-0.0979 -40.50391,-0.13477 -1.23351,1.08259 -2.63822,2.13528 -4.30274,3.1211 -4.13633,2.44982 -8.03894,5.2648 -11.9375,8.07031 -5.94972,4.30203 -11.82499,8.70367 -17.6582,13.16211 -2.41864,1.85175 -4.88557,3.63638 -7.3418,5.43555 0.2331,0.0738 0.46678,0.13386 0.69922,0.21875 0.70239,0.28156 1.4249,0.51893 2.10743,0.8457 4.24173,2.03078 7.49289,5.39592 8.8164,10 0.32571,1.13307 0.33207,2.33473 0.49805,3.50195 -0.10542,3.16441 -0.62707,6.19826 -1.4043,9.26563 -1.00346,4.34778 -2.36869,8.60718 -4.81445,12.38476 -0.65777,0.83415 -1.26262,1.71183 -1.97266,2.50196 -3.21915,3.5823 -7.63222,5.68447 -12.20508,6.93359 -8.24677,1.85114 -16.5889,2.22061 -25.02148,2.40234 -19.67208,0.28936 -39.34659,0.11801 -59.01953,0 -6.39766,-0.0529 -12.50454,-0.0892 -18.88281,-0.1914 -4.2241,-0.0677 -8.49799,-0.0801 -12.71094,-0.48242 -0.65002,-0.0621 -1.29564,-0.16535 -1.94336,-0.24805 -14.21796,-1.81529 -17.78355,-10.86672 -12.70899,-16.90234 -2.48509,-4.81322 -0.61992,-12.20817 8.29297,-18.12696 6.58226,-4.37102 13.17023,-8.72238 19.91993,-12.83398 6.26903,-3.75107 12.94176,-6.73801 19.57031,-9.7832 0.57456,-1.13909 1.26619,-2.31043 2.0957,-3.51172 2.06178,-2.98585 4.23063,-5.94837 6.86133,-8.46875 3.46469,-3.31943 5.19454,-4.42811 9.05273,-7.31836 0.34949,-0.23872 0.70443,-0.46944 1.05469,-0.70703 -2.98639,-0.0532 -9.14131,-0.13237 -12.37305,-0.46289 -1.16828,-0.11956 -2.32142,-0.35522 -3.48242,-0.53321 -22.25905,-3.41223 -10.14514,-6.23489 5.98633,-21.94726 0.0397,-0.0386 0.0637,-0.11606 0.11914,-0.11524 0.30118,0.005 0.60162,0.0303 0.90234,0.0469 0.60438,-1.59991 1.69163,-3.13127 3.33594,-4.43164 -1.56752,-4.51937 0.63604,-9.67477 6.60938,-12.37305 -5.50433,-4.12057 -5.37228,-10.40459 -0.36328,-14.50195 -6.00467,-1.1121 -9.89174,-3.99059 -11.25782,-7.5 -15.4795,-1.06348 -15.36576,-18.75362 4.06446,-23.05469 1.24768,-0.2762 2.48026,-0.61119 3.72461,-0.90039 1.39229,-6.71724 3.04643,-13.37891 4.64843,-20.05078 -17.99288,0.97517 -20.94129,-18.255306 -0.59375,-22.771482 2.06957,-0.459345 4.14701,-0.870609 6.23047,-1.246094 0.27288,-0.98157 0.43899,-1.991851 0.76563,-2.958985 2.01276,-4.145846 0.51948,-1.731664 5.41211,-6.576171 2.25,-2.228149 3.78761,-3.122304 4.81054,-3.058594 z M 406.5321,220.58566 c -1.82115,0.40008 -3.85049,0.62838 -6.12891,0.60547 -3.25298,-0.0327 -6.5067,-0.0201 -9.75976,-0.043 2.41059,3.20022 4.90673,6.357 6.61523,10.01368 1.28118,2.71094 2.30599,5.34812 3.03906,8.03125 2.39456,-3.43325 7.35308,-6.02598 14.81836,-6.11719 0.10029,-0.74257 0.30651,-1.47097 0.61133,-2.17774 -1.20215,-1.12562 -2.44138,-2.21211 -3.55078,-3.43554 -1.95936,-2.23153 -3.83314,-4.52979 -5.64453,-6.87696 z m -21.74414,20.5293 c -0.0702,-0.001 -0.15053,0.003 -0.23633,0.0137 -0.18998,0.0226 -0.38913,0.0665 -0.5918,0.11719 0.19532,0.0216 0.30964,0.018 0.74414,-0.0371 0.0865,-0.0232 0.34407,-0.0382 0.25977,-0.0684 -0.0456,-0.0163 -0.10561,-0.024 -0.17578,-0.0254 z m -4.66016,2.48633 c -0.004,0.004 -0.008,0.009 -0.0117,0.0137 0.0352,0.17041 0.0677,0.34149 0.10352,0.51172 0.0267,0.006 0.0881,0.0439 0.0801,0.0176 -0.0655,-0.21914 -0.1169,-0.37067 -0.17188,-0.54297 z m -116.55664,21.26953 c -0.0649,0.0375 -0.0376,0.1446 -0.0566,0.2168 -0.004,0.0925 0.0163,0.17618 0.0156,0.26758 0.0183,-0.103 0.0405,-0.20495 0.0547,-0.3086 0.008,-0.0582 0.0371,-0.20528 -0.0137,-0.17578 z" />
    </clipPath>
  </defs>
  <sodipodi:namedview
     id="namedview1"
     pagecolor="#ffffff"
     bordercolor="#000000"
     borderopacity="0.25"
     inkscape:showpageshadow="2"
     inkscape:pageopacity="0.0"
     inkscape:pagecheckerboard="0"
     inkscape:deskcolor="#d1d1d1"
     inkscape:zoom="1"
     inkscape:cx="285.5"
     inkscape:cy="214.5"
     inkscape:window-width="1920"
     inkscape:window-height="1017"
     inkscape:window-x="-8"
     inkscape:window-y="-8"
     inkscape:window-maximized="1"
     inkscape:current-layer="svg1" />
  <path
     id="path1"
     d="m 294.30358,1.0114456 c -62.34713,0 -120.96262,24.2835664 -165.04882,68.3769534 C 85.16855,113.48193 60.889521,172.10707 60.889521,234.46457 c 0,17.60378 1.969784,35.15294 5.851563,52.16211 l 13.6875,-3.12305 c -3.648218,-15.98609 -5.498047,-32.48531 -5.498047,-49.03906 0,-58.60638 22.819934,-113.70518 64.253903,-155.146484 41.43449,-41.440931 96.52253,-64.263672 155.11914,-64.263672 58.59609,0 113.68757,22.822741 155.1211,64.263672 41.43456,41.441304 64.25195,96.540104 64.25195,155.146484 0,3.70359 -0.0932,7.44829 -0.27734,11.13086 l 14.02343,0.70117 c 0.19596,-3.91479 0.29493,-7.89576 0.29493,-11.83203 0,-62.3575 -24.27859,-120.98264 -68.36524,-165.076171 C 415.2668,25.295012 356.65079,1.0114456 294.30358,1.0114456 Z m 49.20118,47.6484374 c -2.86742,0.165019 -6.23769,0.962061 -10.1836,2.681641 0,0 15.02918,-5.609124 20.57031,6.75 -3.73349,0.792627 -7.125,2.179687 -7.125,2.179687 12.36194,-1.040254 16.62891,0 16.62891,0 -0.36585,-1.326523 -1.35704,-2.076193 -2.68164,-2.439453 2.7421,-8.03591 12.66406,-8.037109 12.66406,-8.037109 -10.07155,-1.027817 -14.04259,3.680666 -15.52539,6.621094 -1.65216,-3.055747 -5.7454,-8.250915 -14.34765,-7.75586 z m 34.78515,25.541016 c -3.8518,0.371278 -8.27311,1.754413 -13.3164,4.609375 0,0 20.81563,-9.046523 28.15234,9.857422 -1.20408,0.907594 -1.94336,1.740234 -1.94336,1.740234 7.51911,5.151079 15.03906,0.912109 15.03906,0.912109 -0.88013,-1.412101 -1.79487,-2.451697 -2.71875,-3.210937 4.14836,-12.997993 20.04688,-13.005859 20.04688,-13.005859 -16.08493,-1.641591 -22.28956,6.008427 -24.54492,10.621093 -2.72834,-4.647275 -9.15944,-12.637271 -20.71485,-11.523437 z m -91.20117,15.095703 c 0,0 -19.55652,28.893368 -31.12109,36.453128 -0.91944,0.60104 -1.02851,1.86954 -0.2461,2.64062 2.62018,2.58183 9.10127,6.40222 20.61328,-1.69336 11.47656,-8.07078 21.11023,-22.72077 25.42774,-29.951169 1.23014,-2.06015 4.11381,-2.273861 5.6582,-0.4375 l 24.37695,28.982419 h -48.7539 c 0,0 -6.8976,10.19169 -17.82227,25.34571 l -27.55468,-33.44922 c -1.81836,1.77719 -3.6661,3.52459 -5.53711,5.24804 l 28.75195,34.1875 c -27.59745,37.86837 -74.93818,98.92643 -106.43555,118.28321 -2.6124,1.60546 -3.10857,5.19673 -1.0664,7.48437 9.13139,10.22894 35.82565,30.36831 85.88281,-4.83398 54.80203,-38.539 99.2879,-113.92743 110.6289,-134.20313 1.37628,-2.46057 4.77916,-2.77671 6.59375,-0.61914 L 469.6864,277.33176 h -68.20703 v 14.04297 h 148.39062 c 4.6844,0 8.64258,4.92814 8.64258,10.75976 0,5.8317 -3.95818,10.75782 -8.64258,10.75782 H 210.40905 163.32507 88.090693 c -13.673137,0 -24.796875,11.12542 -24.796875,24.80078 0,13.67535 11.123738,24.80273 24.796875,24.80273 h 201.822267 111.56641 10.75 c 5.93112,0 10.75585,4.82477 10.75585,10.75781 0,5.93209 -4.82473,10.75977 -10.75585,10.75977 H 1.9188182 v 14.04101 H 127.80944 c 21.15961,21.54974 45.85803,38.57231 73.47266,50.58594 29.40191,12.79079 60.69862,19.27539 93.02148,19.27539 91.11447,0 175.95415,-54.30137 214.96094,-140.98047 h 40.60547 c 12.50666,0 22.68359,-11.12542 22.68359,-24.80078 0,-13.67536 -10.17693,-24.80273 -22.68359,-24.80273 H 485.90124 L 360.6571,125.29074 H 335.80358 L 306.15124,89.296602 Z m -66.56836,7.076172 c -0.58411,0.598328 -1.16586,1.200664 -1.75195,1.792969 -1.26326,1.287487 -2.57528,2.525097 -3.86914,3.781247 l 2.58398,3.07227 c 1.8561,-1.73209 3.68955,-3.4885 5.49414,-5.269533 0.0619,-0.06108 0.12366,-0.111747 0.18555,-0.171875 z m 88.92969,11.216796 c -1.68727,0 -3.05469,3.13461 -3.05469,7.00195 0,3.86735 1.36742,7.00196 3.05469,7.00196 1.68734,0 3.05664,-3.13461 3.05664,-7.00196 0,-3.86734 -1.3693,-7.00195 -3.05664,-7.00195 z m -166.24414,6.27344 c -0.68319,0.89591 -1.07417,1.48443 -1.77539,2.39453 0.0888,-0.0546 0.17871,-0.10753 0.26758,-0.16211 0.36468,-0.54223 0.73872,-1.07753 1.10156,-1.62109 0.13493,-0.20409 0.27127,-0.40727 0.40625,-0.61133 z m 79.02148,16.95117 c -1.23948,0.93802 -2.49278,1.86008 -3.77929,2.73828 -1.33283,0.87707 -2.64688,1.78233 -3.99805,2.63086 -1.47554,0.92665 -2.97182,1.81742 -4.48242,2.68555 -0.0223,0.51993 -0.13282,0.97053 -0.13282,1.5039 0,8.81344 3.11581,15.95704 6.96094,15.95704 3.84514,0 6.96289,-7.1436 6.96289,-15.95704 0,-3.65678 -0.62868,-6.86746 -1.53125,-9.55859 z m 151.85938,68.95313 c -6.86937,0 -12.4375,12.76282 -12.4375,28.50781 0,15.74498 5.56813,28.50976 12.4375,28.50976 6.86921,0 12.43945,-12.76478 12.43945,-28.50976 0,-15.74499 -5.57024,-28.50781 -12.43945,-28.50781 z M 88.090693,326.93527 h 75.234377 47.08398 282.88867 c -35.93532,77.26914 -113.52652,126.9375 -198.99414,126.9375 -30.38419,0 -59.79567,-6.09333 -87.41992,-18.11132 -21.6,-9.39701 -41.30902,-22.04955 -58.78125,-37.70704 h 264.12696 c 13.67306,0 24.79687,-11.12549 24.79687,-24.80078 0,-13.6758 -11.12381,-24.80078 -24.79687,-24.80078 h -10.75 H 289.91296 88.090693 c -5.931713,0 -10.755859,-4.82768 -10.755859,-10.75976 0,-5.93261 4.824146,-10.75782 10.755859,-10.75782 z"
     clip-path="url(#clipPath111)"
     transform="matrix(0.22542399,0,0,0.22542399,1.4862705,12.783442)" />
  <text
     xml:space="preserve"
     style="font-weight:bold;font-size:60.1133px;font-family:Georgia;-inkscape-font-specification:'Georgia Bold';fill:#000000;stroke-width:0.225425"
     x="23.763437"
     y="76.56295"
     id="text112"><tspan
       sodipodi:role="line"
       id="tspan112"
       x="23.763437"
       y="76.56295"
       style="stroke-width:0.225425">U</tspan></text>
  <text
     xml:space="preserve"
     style="font-weight:bold;font-size:60.1133px;font-family:Georgia;-inkscape-font-specification:'Georgia Bold';fill:#000000;stroke-width:0.225425"
     x="65.601097"
     y="85.823395"
     id="text113"><tspan
       sodipodi:role="line"
       id="tspan113"
       x="65.601097"
       y="85.823395"
       style="stroke-width:0.225425">P</tspan></text>
</svg>
